<svg width="560" height="128" viewBox="0 0 560 128" fill="none" xmlns="http://www.w3.org/2000/svg">
<g clip-path="url(#clip0_1_392)">
<path d="M22.625 119.375L69.1875 72.8125L50.5625 54.1875L69.1875 35.5625L78.5 44.875L59.875 63.5L78.5 82.125L134.375 26.25L143.688 35.5625L78.5 100.75L69.1875 91.4375L50.5625 110.062L22.625 119.375Z" fill="url(#paint0_linear_1_392)"/>
<path d="M134.375 119.375L87.8125 72.8125L106.438 54.1875L87.8125 35.5625L78.5 44.875L97.125 63.5L78.5 82.125L22.625 26.25L13.3125 35.5625L78.5 100.75L87.8125 91.4375L106.438 110.062L134.375 119.375Z" fill="url(#paint1_linear_1_392)"/>
<path opacity="0.8" d="M69.1875 72.8125H87.8125L78.5 63.5L69.1875 72.8125Z" fill="url(#paint2_linear_1_392)"/>
<path d="M83.1562 21.5938C83.1562 19.0222 81.0716 16.9375 78.5 16.9375C75.9284 16.9375 73.8438 19.0222 73.8438 21.5938V30.9062C73.8438 33.4778 75.9284 35.5625 78.5 35.5625C81.0716 35.5625 83.1562 33.4778 83.1562 30.9062V21.5938Z" fill="url(#paint3_linear_1_392)"/>
<path d="M78.5 7.625L69.1875 26.25H87.8125L78.5 7.625Z" fill="url(#paint4_linear_1_392)"/>
<path d="M158.703 42.776V42.2H191.055H223.503V42.776L224.559 54.968C225.135 62.968 225.455 67.032 225.519 67.16V67.736H222.063C219.759 67.736 218.607 67.704 218.607 67.64C218.607 66.36 218.447 64.696 218.127 62.648C217.743 59.768 217.199 57.4 216.495 55.544C215.535 53.304 213.903 51.64 211.599 50.552C210.639 50.04 209.359 49.656 207.759 49.4C207.183 49.272 205.551 49.176 202.863 49.112H199.119V74.552V100.088H206.511H213.807V103.544V107H212.271L200.943 106.808C194.351 106.744 187.791 106.744 181.263 106.808L169.935 107H168.399V103.544V100.088H175.791H183.087V74.552V49.112H179.343C176.655 49.176 175.023 49.272 174.447 49.4C171.439 49.976 169.135 51.096 167.535 52.76C166.511 53.784 165.679 55.32 165.039 57.368C164.527 59.224 164.111 62.072 163.791 65.912C163.663 67 163.599 67.576 163.599 67.64C163.599 67.704 162.447 67.736 160.143 67.736H156.687V67.16L157.743 54.968C158.319 46.968 158.639 42.904 158.703 42.776ZM240.614 64.184C246.63 63.928 249.574 63.8 249.446 63.8H250.022V66.296L250.118 68.792L250.406 68.312C251.622 66.52 253.254 65.24 255.302 64.472C258.438 63.32 261.894 63.512 265.67 65.048C266.502 65.304 267.238 65.656 267.878 66.104C270.054 67.576 271.334 69.4 271.718 71.576C271.974 72.728 271.91 73.816 271.526 74.84C271.014 76.824 269.862 78.264 268.07 79.16C266.982 79.608 265.894 79.832 264.806 79.832C263.59 79.832 262.502 79.608 261.542 79.16C259.686 78.264 258.47 76.824 257.894 74.84C257.83 74.52 257.798 73.848 257.798 72.824C257.798 71.8 257.862 71.064 257.99 70.616C258.246 70.04 258.31 69.752 258.182 69.752C257.99 69.56 257.414 69.752 256.454 70.328C255.494 70.776 254.63 71.544 253.862 72.632C252.646 74.552 251.782 77.368 251.27 81.08C251.206 81.72 251.142 85.112 251.078 91.256V100.088H255.206H259.43V103.544V107H258.374L251.078 106.808C246.854 106.744 242.854 106.744 239.078 106.808C234.79 106.936 232.614 107 232.55 107H231.686V103.544V100.088H235.046H238.31V86.84C238.31 78.008 238.246 73.432 238.118 73.112C237.926 72.472 237.51 72.056 236.87 71.864C235.974 71.608 234.662 71.48 232.934 71.48H231.686V68.024V64.568H231.974L240.614 64.184ZM296.3 63.608L304.172 63.704C312.556 64.664 317.9 67.832 320.204 73.208C320.46 73.784 320.652 74.36 320.78 74.936L321.068 75.992L321.164 87.512C321.164 95 321.228 98.872 321.356 99.128C321.868 99.64 323.244 99.96 325.484 100.088C326.508 100.088 327.244 100.216 327.692 100.472C328.076 100.856 328.268 101.88 328.268 103.544C328.268 105.208 328.044 106.232 327.596 106.616C326.956 106.872 324.908 107 321.452 107C317.612 106.936 315.084 106.712 313.868 106.328C311.884 105.688 310.604 104.696 310.028 103.352C309.772 102.84 309.644 102.552 309.644 102.488C309.644 102.424 309.356 102.584 308.78 102.968C305.964 105.208 302.188 106.68 297.452 107.384C294.956 107.64 293.004 107.672 291.596 107.48C285.836 106.84 281.772 104.472 279.404 100.376C278.828 99.416 278.412 98.424 278.156 97.4C277.964 96.696 277.868 95.8 277.868 94.712C277.868 93.176 278.124 91.864 278.636 90.776C279.404 89.24 280.46 87.928 281.804 86.84C284.044 85.112 286.892 83.768 290.348 82.808C294.572 81.528 299.596 80.76 305.42 80.504L307.82 80.408V78.68L307.724 76.184V76.088C307.34 73.4 306.028 71.512 303.788 70.424C302.38 69.72 300.556 69.368 298.316 69.368C295.692 69.368 294.316 69.432 294.188 69.56L294.476 70.136C294.988 71.032 295.212 72.184 295.148 73.592C295.148 74.616 295.084 75.352 294.956 75.8C294.572 76.952 293.996 77.912 293.228 78.68C292.396 79.512 291.404 80.12 290.252 80.504C289.74 80.632 289.004 80.696 288.044 80.696C287.084 80.696 286.38 80.632 285.932 80.504C284.716 80.12 283.692 79.512 282.86 78.68C282.092 77.912 281.516 76.952 281.132 75.8C281.004 75.352 280.94 74.616 280.94 73.592C280.94 72.568 281.004 71.832 281.132 71.384C282.092 67.864 285.196 65.528 290.444 64.376C292.172 63.992 294.124 63.736 296.3 63.608ZM307.82 90.776C307.82 87.448 307.788 85.784 307.724 85.784C307.66 85.784 307.5 85.816 307.244 85.88C303.468 86.136 300.172 86.808 297.356 87.896C294.348 89.112 292.46 90.808 291.692 92.984C291.372 93.88 291.34 95.032 291.596 96.44C292.236 99 293.708 100.664 296.012 101.432C296.14 101.496 296.3 101.56 296.492 101.624C298.86 102.008 301.356 101.528 303.98 100.184C304.172 100.12 304.364 100.024 304.556 99.896C305.772 99.128 306.636 98.264 307.148 97.304C307.532 96.536 307.756 95.256 307.82 93.464V90.776ZM370.511 40.76C376.911 40.504 380.047 40.376 379.919 40.376H380.495V69.176C380.495 88.376 380.559 98.136 380.687 98.456C380.879 99.096 381.295 99.512 381.935 99.704C382.831 99.96 384.143 100.088 385.871 100.088H387.119V103.544C387.119 105.848 387.087 107 387.023 107C385.807 107 382.511 107.096 377.135 107.288C371.759 107.48 368.463 107.576 367.247 107.576C367.183 107.576 367.151 106.904 367.151 105.56V103.64L366.671 103.928C363.983 105.464 360.911 106.552 357.455 107.192C354.447 107.64 351.695 107.704 349.199 107.384C344.463 106.552 340.687 104.728 337.871 101.912C333.647 97.752 331.631 92.056 331.823 84.824C331.887 82.328 332.303 79.864 333.071 77.432C335.119 71.544 338.991 67.512 344.687 65.336C344.879 65.272 345.071 65.208 345.263 65.144C347.503 64.376 349.967 63.928 352.655 63.8C357.775 63.672 362.511 64.632 366.863 66.68L367.727 67.064V58.616C367.727 52.984 367.663 50.008 367.535 49.688C367.343 49.048 366.927 48.632 366.287 48.44C365.391 48.184 364.079 48.056 362.351 48.056H361.103V44.6V41.144H361.391C361.071 41.144 364.111 41.016 370.511 40.76ZM359.663 69.944C358.383 69.688 357.039 69.624 355.631 69.752C352.815 70.072 350.671 70.968 349.199 72.44C347.663 74.04 346.799 77.016 346.607 81.368C346.543 82.904 346.511 84.856 346.511 87.224C346.575 92.92 347.119 96.536 348.143 98.072C348.335 98.392 348.591 98.712 348.911 99.032C351.023 101.4 354.127 102.232 358.223 101.528C359.631 101.272 360.975 100.824 362.255 100.184C363.599 99.48 364.847 98.552 365.999 97.4L367.151 96.248V84.92V73.592L366.671 73.208C364.559 71.416 362.223 70.328 359.663 69.944ZM413.817 63.608L420.249 63.704C424.793 64.344 428.441 65.944 431.193 68.504C434.393 71.704 436.217 76.056 436.665 81.56C436.857 83.928 436.569 85.368 435.801 85.88C435.545 86.008 430.681 86.072 421.209 86.072H407.097V87.992C407.289 92.472 408.185 95.608 409.785 97.4C409.913 97.528 410.073 97.688 410.265 97.88C412.121 99.736 414.937 100.856 418.713 101.24C420.185 101.368 421.401 101.336 422.361 101.144C425.817 100.632 428.249 98.904 429.657 95.96C429.721 95.768 429.785 95.608 429.849 95.48C430.169 94.648 430.681 94.2 431.385 94.136C431.705 94.072 432.345 94.04 433.305 94.04C434.713 94.04 435.545 94.104 435.801 94.232C436.569 94.616 436.857 95.288 436.665 96.248C436.281 97.592 435.641 98.84 434.745 99.992C431.865 103.96 427.353 106.424 421.209 107.384C419.417 107.64 417.017 107.672 414.009 107.48C413.817 107.416 413.625 107.384 413.433 107.384C403.065 106.04 396.441 101.176 393.561 92.792C393.177 91.512 392.857 90.168 392.601 88.76C392.345 86.968 392.345 84.856 392.601 82.424C392.601 82.232 392.601 82.072 392.601 81.944C393.305 77.784 394.809 74.296 397.113 71.48C397.945 70.328 399.161 69.176 400.761 68.024C404.281 65.464 408.633 63.992 413.817 63.608ZM418.137 69.56C417.177 69.368 415.961 69.336 414.489 69.464C411.609 69.976 409.593 71.416 408.441 73.784C407.801 75.128 407.385 77.08 407.193 79.64V80.504H416.121H425.145L425.049 80.024C424.409 74.072 422.105 70.584 418.137 69.56ZM444.42 44.6V41.144H445.476C445.412 41.144 448.196 41.208 453.828 41.336C458.628 41.4 463.78 41.4 469.284 41.336L478.788 41.144H480.036V44.6V48.056H476.868C474.692 48.056 473.604 48.088 473.604 48.152L483.108 61.976C483.172 61.976 484.868 59.672 488.196 55.064L493.188 48.056H489.06H485.028V44.6V41.144H486.084L494.34 41.336C499.076 41.4 503.46 41.4 507.492 41.336L514.404 41.144H515.364V44.6V48.056H508.836H502.404L495.012 58.424L487.62 68.696L498.372 84.344L509.124 100.088H514.596H520.068V103.544V107H519.012C519.076 107 516.292 106.936 510.66 106.808C505.86 106.744 500.708 106.744 495.204 106.808L485.7 107H484.452V103.544V100.088H487.716C489.828 100.088 490.884 100.056 490.884 99.992L478.308 81.752L471.684 90.872L465.156 99.992L469.284 100.088H473.316V103.544V107H472.26L464.004 106.808C459.268 106.744 454.884 106.744 450.852 106.808L443.94 107H442.98V103.544V100.088H449.508H456.036L464.964 87.608C470.852 79.288 473.828 75.096 473.892 75.032L464.676 61.592L455.46 48.056H449.892H444.42V44.6Z" fill="white"/>
</g>
<defs>
<linearGradient id="paint0_linear_1_392" x1="22.625" y1="26.25" x2="9023.55" y2="11727.5" gradientUnits="userSpaceOnUse">
<stop stop-color="#1E40AF"/>
<stop offset="1" stop-color="#10B981"/>
</linearGradient>
<linearGradient id="paint1_linear_1_392" x1="12119.6" y1="26.25" x2="3118.63" y2="11727.5" gradientUnits="userSpaceOnUse">
<stop stop-color="#059669"/>
<stop offset="1" stop-color="#2563EB"/>
</linearGradient>
<linearGradient id="paint2_linear_1_392" x1="69.1875" y1="63.5" x2="814.188" y2="1553.5" gradientUnits="userSpaceOnUse">
<stop stop-color="#1E40AF"/>
<stop offset="1" stop-color="#10B981"/>
</linearGradient>
<linearGradient id="paint3_linear_1_392" x1="73.8438" y1="16.9375" x2="1563.84" y2="761.938" gradientUnits="userSpaceOnUse">
<stop stop-color="#1E40AF"/>
<stop offset="1" stop-color="#10B981"/>
</linearGradient>
<linearGradient id="paint4_linear_1_392" x1="69.1875" y1="7.625" x2="1931.69" y2="1870.13" gradientUnits="userSpaceOnUse">
<stop stop-color="#1E40AF"/>
<stop offset="1" stop-color="#10B981"/>
</linearGradient>
<clipPath id="clip0_1_392">
<rect width="560" height="128" fill="white"/>
</clipPath>
</defs>
</svg>
